<?xml version="1.0" encoding="iso-8859-1"?>
<!-- Generator: Adobe Illustrator 18.0.0, SVG Export Plug-In . SVG Version: 6.00 Build 0)  -->
<!DOCTYPE svg PUBLIC "-//W3C//DTD SVG 1.1//EN" "http://www.w3.org/Graphics/SVG/1.1/DTD/svg11.dtd">
<svg version="1.1" id="Layer_1" xmlns="http://www.w3.org/2000/svg" xmlns:xlink="http://www.w3.org/1999/xlink" x="0px" y="0px"
	 viewBox="0 0 1190.453 909.091" style="enable-background:new 0 0 1190.453 909.091;" xml:space="preserve">
<g>
	<path style="fill:#47A49B;" d="M693.292,320.56c0,113.423-50.62,136.923-113.063,136.923s-113.063-3.711-113.063-136.923
		c0-66.057,50.62-119.608,113.063-119.608S693.292,254.502,693.292,320.56z"/>
	<circle style="fill:#47A49B;" cx="477.159" cy="287.275" r="46.777"/>
	<circle style="fill:#FFFFFF;" cx="477.159" cy="287.275" r="32.697"/>
	<circle style="fill:#1E1E1C;" cx="477.159" cy="287.275" r="24.325"/>
	<circle style="fill:#FFFFFF;" cx="490.256" cy="278.141" r="15.192"/>
	<circle style="fill:#47A49B;" cx="693.292" cy="287.275" r="46.777"/>
	<circle style="fill:#FFFFFF;" cx="693.292" cy="287.275" r="32.697"/>
	<circle style="fill:#1E1E1C;" cx="693.292" cy="287.275" r="24.325"/>
	<circle style="fill:#FFFFFF;" cx="706.389" cy="278.141" r="15.192"/>
	<path style="fill:#47A49B;" d="M631.905,359.772c0,0-40.166,76.688-99.505,4.948l30.931-1.542l17.976-0.891l7.842-0.388
		l17.679-0.882L631.905,359.772z"/>
	<path style="fill:#FFFFFF;" d="M585.15,383.818c-0.965,2.103-20.747,5.838-21.704,3.735c-0.734-1.624-0.33-17.325-0.115-24.375
		l17.976-0.891C582.421,366.922,585.967,382.037,585.15,383.818z"/>
	<path style="fill:#FFFFFF;" d="M610.845,380.041c-0.965,2.095-21.019,3.348-21.976,1.245c-0.75-1.666-0.041-14.29,0.28-19.386
		l17.679-0.882C607.184,362.213,611.777,378.021,610.845,380.041z"/>
	<path style="fill:#47A49B;" d="M552.653,201.608c0,0-8.256-27.21-33.648-27.21c0,0,39.467-20.551,55.893,20.646
		c0,0-7.497-31.777,11.267-44.146c0,0-7.77,35.868,6.734,50.71c0,0,0.246-23.5,7.375-25.355c0,0-2.637,26.592,8.43,41.434
		S552.653,201.608,552.653,201.608z"/>
</g>
</svg>
