<?xml version="1.0" encoding="iso-8859-1"?>
<!-- Generator: Adobe Illustrator 18.0.0, SVG Export Plug-In . SVG Version: 6.00 Build 0)  -->
<!DOCTYPE svg PUBLIC "-//W3C//DTD SVG 1.1//EN" "http://www.w3.org/Graphics/SVG/1.1/DTD/svg11.dtd">
<svg version="1.1" id="Layer_1" xmlns="http://www.w3.org/2000/svg" xmlns:xlink="http://www.w3.org/1999/xlink" x="0px" y="0px"
	 viewBox="0 0 1190.453 909.091" style="enable-background:new 0 0 1190.453 909.091;" xml:space="preserve">
<g>
	<g>
		<path style="fill:#1D1D1B;" d="M518.522,223.794l-18.947-17.155c-6.141-5.56-15.627-5.089-21.187,1.052
			s-5.089,15.627,1.052,21.187l18.947,17.155L518.522,223.794z"/>
	</g>
	<g>
		<path style="fill:#1D1D1B;" d="M499.729,244.551l-18.947-17.155c-6.141-5.56-15.627-5.089-21.187,1.052
			s-5.089,15.627,1.052,21.187l18.947,17.155L499.729,244.551z"/>
	</g>
	<g>
		<path style="fill:#1D1D1B;" d="M480.936,265.308l-18.947-17.155c-6.141-5.56-15.627-5.089-21.187,1.052
			c-5.56,6.141-5.089,15.627,1.052,21.187l18.947,17.155L480.936,265.308z"/>
	</g>
	<g>
		<path style="fill:#1D1D1B;" d="M643.83,223.794l18.947-17.155c6.141-5.56,15.627-5.089,21.187,1.052
			c5.56,6.141,5.089,15.627-1.052,21.187l-18.947,17.155L643.83,223.794z"/>
	</g>
	<g>
		<path style="fill:#1D1D1B;" d="M662.623,244.551l18.947-17.155c6.141-5.56,15.627-5.089,21.187,1.052
			c5.56,6.141,5.089,15.627-1.052,21.187l-18.947,17.155L662.623,244.551z"/>
	</g>
	<g>
		<path style="fill:#1D1D1B;" d="M681.416,265.308l18.947-17.155c6.141-5.56,15.627-5.089,21.187,1.052
			c5.56,6.141,5.089,15.627-1.052,21.187l-18.947,17.155L681.416,265.308z"/>
	</g>
	<path style="fill:#47A49B;" d="M581.831,450.676c65,0,90-51,97-96s40-83,40-83c-40,0-42-102-137-102s-97,102-137,102
		c0,0,32.999,38,40,83S516.831,450.676,581.831,450.676z"/>
	<circle style="fill:#1E1E1C;" cx="496.831" cy="279.676" r="19.11"/>
	<circle style="fill:#1E1E1C;" cx="553.498" cy="279.676" r="19.11"/>
	<circle style="fill:#1E1E1C;" cx="610.165" cy="279.676" r="19.11"/>
	<circle style="fill:#1E1E1C;" cx="666.831" cy="279.676" r="19.11"/>
	<circle style="fill:#1E1E1C;" cx="526.165" cy="232.676" r="19.11"/>
	<circle style="fill:#1E1E1C;" cx="582.831" cy="232.676" r="19.11"/>
	<circle style="fill:#1E1E1C;" cx="639.498" cy="232.676" r="19.11"/>
	<circle style="fill:#FFFFFF;" cx="492.831" cy="279.676" r="9.555"/>
	<circle style="fill:#FFFFFF;" cx="550.498" cy="283.676" r="9.555"/>
	<circle style="fill:#FFFFFF;" cx="612.165" cy="277.675" r="9.555"/>
	<circle style="fill:#FFFFFF;" cx="671.832" cy="279.676" r="9.555"/>
	<circle style="fill:#FFFFFF;" cx="521.164" cy="230.675" r="9.555"/>
	<circle style="fill:#FFFFFF;" cx="582.831" cy="232.676" r="9.555"/>
	<circle style="fill:#FFFFFF;" cx="645.499" cy="225.675" r="9.555"/>
	<path style="fill:#1D1D1B;" d="M511.831,383.676c0-28.041,31.788-50.773,71-50.773s71,22.732,71,50.773"/>
	<g>
		<path style="fill:#1D1D1B;" d="M541.667,377.18v42.5c0,8.28-6.72,15-15,15c-8.29,0-15-6.72-15-15v-42.5H541.667z"/>
	</g>
	<g>
		<path style="fill:#1D1D1B;" d="M569.667,377.18v26.49c0,2.73-0.73,5.28-2,7.48c-2.59,4.5-7.44,7.52-13,7.52
			c-5.56,0-10.42-3.02-13-7.52c-1.27-2.2-2-4.75-2-7.48v-26.49H569.667z"/>
	</g>
	<g>
		<path style="fill:#1D1D1B;" d="M597.667,377.18v36.49c0,8.29-6.72,15-15,15c-8.29,0-15-6.71-15-15v-36.49H597.667z"/>
	</g>
	<g>
		<path style="fill:#1D1D1B;" d="M653.667,377.18v96.5c0,8.28-6.72,15-15,15c-8.29,0-15-6.72-15-15v-96.5H653.667z"/>
	</g>
	<g>
		<path style="fill:#1D1D1B;" d="M625.667,377.18v26.49c0,2.73-0.73,5.28-2,7.48c-2.59,4.5-7.44,7.52-13,7.52
			c-5.56,0-10.42-3.02-13-7.52c-1.27-2.2-2-4.75-2-7.48v-26.49H625.667z"/>
	</g>
	<g>
		<path style="fill:none;" d="M653.667,377.18v96.5c0,8.28-6.72,15-15,15c-8.29,0-15-6.72-15-15v-62.53c-2.59,4.5-7.44,7.52-13,7.52
			c-5.56,0-10.42-3.02-13-7.52v2.52c0,8.29-6.72,15-15,15c-8.29,0-15-6.71-15-15v-2.52c-2.59,4.5-7.44,7.52-13,7.52
			c-5.56,0-10.42-3.02-13-7.52v8.53c0,8.28-6.72,15-15,15c-8.29,0-15-6.72-15-15v-42.5H653.667z"/>
	</g>
</g>
</svg>
