<?xml version="1.0" encoding="iso-8859-1"?>
<!-- Generator: Adobe Illustrator 18.0.0, SVG Export Plug-In . SVG Version: 6.00 Build 0)  -->
<!DOCTYPE svg PUBLIC "-//W3C//DTD SVG 1.1//EN" "http://www.w3.org/Graphics/SVG/1.1/DTD/svg11.dtd">
<svg version="1.1" id="Layer_1" xmlns="http://www.w3.org/2000/svg" xmlns:xlink="http://www.w3.org/1999/xlink" x="0px" y="0px"
	 viewBox="0 0 1190.453 909.091" style="enable-background:new 0 0 1190.453 909.091;" xml:space="preserve">
<g>
	<g>
		<path style="fill:#1D1D1B;" d="M473.374,263.583l-18.947-17.155c-6.141-5.56-15.627-5.089-21.187,1.052
			s-5.089,15.627,1.052,21.187l18.947,17.155L473.374,263.583z"/>
	</g>
	<g>
		<path style="fill:#1D1D1B;" d="M673.854,263.583l18.947-17.155c6.141-5.56,15.627-5.089,21.187,1.052s5.089,15.627-1.052,21.187
			l-18.947,17.155L673.854,263.583z"/>
	</g>
	<path style="fill:#47A49B;" d="M700.548,273.132c0,113.423-32.998,173.202-125.759,173.202
		c-62.443,0-106.729-35.404-132.11-174.206c25.38-44.086,39.349-104.177,132.11-104.177S679.549,254.022,700.548,273.132z"/>
	<g>
		<path style="fill:#1D1D1B;" d="M502.614,331.171v25.56c0,8.284,6.716,15,15,15c8.284,0,15-6.716,15-15v-25.56H502.614z"/>
	</g>
	<g>
		<path style="fill:#1D1D1B;" d="M530.614,331.171v25.56c0,8.284,6.716,15,15,15s15-6.716,15-15v-25.56H530.614z"/>
	</g>
	<g>
		<path style="fill:#1D1D1B;" d="M558.614,331.171v25.56c0,8.284,6.716,15,15,15s15-6.716,15-15v-25.56H558.614z"/>
	</g>
	<g>
		<path style="fill:#1D1D1B;" d="M614.614,331.171v25.56c0,8.284,6.716,15,15,15s15-6.716,15-15v-25.56H614.614z"/>
	</g>
	<g>
		<path style="fill:#1D1D1B;" d="M586.614,331.171v25.56c0,8.284,6.716,15,15,15s15-6.716,15-15v-25.56H586.614z"/>
	</g>
	<circle style="fill:#FFFFFF;" cx="511.054" cy="273.132" r="24.027"/>
	<circle style="fill:#1E1E1C;" cx="511.054" cy="273.132" r="11.838"/>
	<circle style="fill:#FFFFFF;" cx="637.551" cy="273.132" r="24.027"/>
	<circle style="fill:#1E1E1C;" cx="637.551" cy="273.132" r="11.838"/>
</g>
</svg>
