<?xml version="1.0" encoding="iso-8859-1"?>
<!-- Generator: Adobe Illustrator 18.0.0, SVG Export Plug-In . SVG Version: 6.00 Build 0)  -->
<!DOCTYPE svg PUBLIC "-//W3C//DTD SVG 1.1//EN" "http://www.w3.org/Graphics/SVG/1.1/DTD/svg11.dtd">
<svg version="1.1" id="Layer_1" xmlns="http://www.w3.org/2000/svg" xmlns:xlink="http://www.w3.org/1999/xlink" x="0px" y="0px"
	 viewBox="0 0 1190.453 909.091" style="enable-background:new 0 0 1190.453 909.091;" xml:space="preserve">
<g>
	<path style="fill:none;stroke:#1D1D1B;stroke-width:30;stroke-linecap:round;stroke-miterlimit:10;" d="M456.003,135.9
		c0,0,43.554,17.911,53.777,58.956"/>
	<path style="fill:none;stroke:#1D1D1B;stroke-width:30;stroke-linecap:round;stroke-miterlimit:10;" d="M403.837,209.52
		c0,0,32.782-12.02,49.731,23.89"/>
	<path style="fill:none;stroke:#1D1D1B;stroke-width:30;stroke-linecap:round;stroke-miterlimit:10;" d="M415.003,164.211
		c0,0,46.481,6.201,63.43,42.11"/>
	<path style="fill:none;stroke:#1D1D1B;stroke-width:30;stroke-linecap:round;stroke-miterlimit:10;" d="M694.222,135.9
		c0,0-43.554,17.911-53.777,58.956"/>
	<path style="fill:none;stroke:#1D1D1B;stroke-width:30;stroke-linecap:round;stroke-miterlimit:10;" d="M746.388,209.52
		c0,0-32.781-12.02-49.731,23.89"/>
	<path style="fill:none;stroke:#1D1D1B;stroke-width:30;stroke-linecap:round;stroke-miterlimit:10;" d="M735.222,164.211
		c0,0-46.481,6.201-63.43,42.11"/>
	<path style="fill:#47A49B;" d="M575.67,460.901c65,0,90-93.49,97-138.49s40-83,40-83c-40,0-42-140.51-137-140.51
		s-97,140.51-137,140.51c0,0,32.999,38,40,83C485.67,367.411,510.67,460.901,575.67,460.901z"/>
	<circle style="fill:#1E1E1C;" cx="486.674" cy="250.407" r="22.106"/>
	<circle style="fill:#1E1E1C;" cx="546.336" cy="247.411" r="19.11"/>
	<circle style="fill:#1E1E1C;" cx="603.003" cy="247.411" r="19.11"/>
	<circle style="fill:#1E1E1C;" cx="662.069" cy="249.81" r="21.51"/>
	<circle style="fill:#1E1E1C;" cx="499.001" cy="200.411" r="19.11"/>
	<circle style="fill:#1E1E1C;" cx="575.67" cy="164.211" r="55.31"/>
	<circle style="fill:#1E1E1C;" cx="652.338" cy="200.411" r="19.11"/>
	<circle style="fill:#FFFFFF;" cx="482.046" cy="250.407" r="11.053"/>
	<circle style="fill:#FFFFFF;" cx="543.336" cy="251.411" r="9.555"/>
	<circle style="fill:#FFFFFF;" cx="605.003" cy="245.411" r="9.555"/>
	<circle style="fill:#FFFFFF;" cx="667.698" cy="249.81" r="10.755"/>
	<circle style="fill:#FFFFFF;" cx="494.001" cy="198.411" r="9.555"/>
	<circle style="fill:#FFFFFF;" cx="575.67" cy="161.201" r="27.655"/>
	<circle style="fill:#FFFFFF;" cx="658.339" cy="193.41" r="9.555"/>
	<path style="fill:none;stroke:#1D1D1B;stroke-width:30;stroke-linecap:round;stroke-miterlimit:10;" d="M622.113,389.209
		c61.466,78.692,121.151,18.252,137.04-17.308c35.953-80.463-5.15-126.49-5.15-126.49"/>
	<path style="fill:none;stroke:#1D1D1B;stroke-width:30;stroke-linecap:round;stroke-miterlimit:10;" d="M527.226,357.901
		c-31.07,28.925-75.036,39.517-118.077,24.522c-41.541-14.472-74.339-77.299-34.146-115.902
		c16.098-15.461,50.085-23.191,45.288,9.721c-0.082,0.559-0.178,1.115-0.288,1.669"/>
	<path style="fill:#1D1D1B;" d="M661.67,381.355c0-50.891-38.503-76.44-86-76.44c-47.496,0-86,25.548-86,76.44
		s38.503,92.147,86,92.147C623.166,473.502,661.67,432.247,661.67,381.355z"/>
	<path style="fill:none;stroke:#1D1D1B;stroke-width:30;stroke-linecap:round;stroke-miterlimit:10;" d="M625.834,354.763
		c0,0,88.169,43.787,102.169-24.033"/>
	<path style="fill:none;stroke:#1D1D1B;stroke-width:30;stroke-linecap:round;stroke-miterlimit:10;" d="M278.805,309.901
		c0,0,56.268-32.231,27.198,56.364c-35.485,108.145,71.78,95.767,103,59.398c41-47.762-1.11-138.262,95.667-64.762"/>
	<path style="fill:none;stroke:#1D1D1B;stroke-width:30;stroke-linecap:round;stroke-miterlimit:10;" d="M614.558,410.148
		c0,0,39.897-84.992,82.445-100.247c62-32.635,201-17.76,137-90.38"/>
	<path style="fill:none;stroke:#1D1D1B;stroke-width:30;stroke-linecap:round;stroke-miterlimit:10;" d="M552.891,429.724
		c0,0-40.888-56.823-94.888,12.177s-136.352,19.641-114-39"/>
	<path style="fill:none;stroke:#1D1D1B;stroke-width:30;stroke-linecap:round;stroke-miterlimit:10;" d="M594.78,429.724
		c0,0,52.223-79.804,169.223-11.313s129-76.51,91-108.51"/>
	<path style="fill:none;stroke:#1D1D1B;stroke-width:30;stroke-linecap:round;stroke-miterlimit:10;" d="M608.233,382.901
		c0,0,36.591,93,116.044,78s85.726-87.664,85.726-87.664"/>
	<path style="fill:none;stroke:#1D1D1B;stroke-width:30;stroke-linecap:round;stroke-miterlimit:10;" d="M485.669,484.932
		c0,0-19.443-66.521,33.334-66.521"/>
	<path style="fill:#1D1D1B;" d="M581.83,288.605c3.235-7.534,34.953-5.381,52.296,2.067c17.343,7.447,13.745,17.368,10.51,24.903
		c-3.235,7.534-24.884-10.685-42.227-18.133C585.065,289.994,578.595,296.139,581.83,288.605z"/>
	<path style="fill:#1D1D1B;" d="M561.352,288.605c-3.235-7.534-34.953-5.381-52.296,2.067
		c-17.343,7.447-13.745,17.368-10.509,24.903c3.235,7.534,24.884-10.685,42.227-18.133
		C558.117,289.994,564.587,296.139,561.352,288.605z"/>
</g>
</svg>
