<?xml version="1.0" encoding="utf-8"?>
<!-- Generator: Adobe Illustrator 18.0.0, SVG Export Plug-In . SVG Version: 6.00 Build 0)  -->
<!DOCTYPE svg PUBLIC "-//W3C//DTD SVG 1.1//EN" "http://www.w3.org/Graphics/SVG/1.1/DTD/svg11.dtd">
<svg version="1.1" id="Layer_1" xmlns="http://www.w3.org/2000/svg" xmlns:xlink="http://www.w3.org/1999/xlink" x="0px" y="0px"
	 viewBox="0 0 1190.6 841.9" enable-background="new 0 0 1190.6 841.9" xml:space="preserve">
<g>
	<g>
		<g>
			<path fill="#47A49B" d="M526.4,699l-37-41.5l7-52l35.7-114.3l39.7-6.3c0,0,5.3,87.3-56,120.6c-20.9,11.3,56,83.9,56,83.9
				l-32.6,6.8C539.3,696.3,526.4,699,526.4,699z"/>
		</g>
		<path fill="#1D1D1B" d="M505.8,703.3c-64.8,16-22.3,64.8-22.3,64.8s-13.7-56.5,52.8-52.5L505.8,703.3z"/>
		<path fill="#1D1D1B" d="M482.9,623.9c0,0-51.1,26.2-18.2,61c0,0-4.5-17.3,24.6-27.4l7-52L482.9,623.9z"/>
		<path fill="#1D1D1B" d="M512.3,711.6c0,0-34.3,18.6-6.3,49.9c0,0,6.2-45.6,30.3-45.9c0,0-20.3,20.1-5.5,52.5
			c0,0,2.8-58.3,33.3-61.1c0,0,22.8,14.8,16,37c0,0,20.7-13.8-8.3-54.5l-66.1,13.8"/>
		<path fill="#1D1D1B" d="M456.9,625.3c0,0,17.8-5.4,24.4,0.5l15.1-20.2C496.4,605.5,478.9,605.4,456.9,625.3z"/>
	</g>
</g>
</svg>
