<?xml version="1.0" encoding="utf-8"?>
<!-- Generator: Adobe Illustrator 18.0.0, SVG Export Plug-In . SVG Version: 6.00 Build 0)  -->
<!DOCTYPE svg PUBLIC "-//W3C//DTD SVG 1.1//EN" "http://www.w3.org/Graphics/SVG/1.1/DTD/svg11.dtd">
<svg version="1.1" id="Layer_1" xmlns="http://www.w3.org/2000/svg" xmlns:xlink="http://www.w3.org/1999/xlink" x="0px" y="0px"
	 viewBox="0 0 1190.6 841.9" enable-background="new 0 0 1190.6 841.9" xml:space="preserve">
<g>
	<path fill="none" stroke="#47A49B" stroke-width="80" stroke-linecap="round" stroke-miterlimit="10" d="M345,391.1
		c-13.4,86.7,18.8,143.9,155.9,39.4"/>
	<path fill="#47A49B" d="M689.5,448.6c0,32.2-50.4,70.1-111,70.1s-108.2-37.9-108.2-70.1s54-74.7,114.5-74.7
		S689.5,416.4,689.5,448.6z"/>
	<path fill="none" stroke="#47A49B" stroke-width="80" stroke-linecap="round" stroke-miterlimit="10" d="M250.4,476.3
		c0,0,55.9,155.5,141.3,104.9c85.4-50.6,68-177,181.8-176.5"/>
	
		<ellipse transform="matrix(-0.3489 -0.9372 0.9372 -0.3489 -156.8582 904.9606)" fill="#1D1D1B" cx="235.9" cy="507" rx="26.8" ry="17.4"/>
	
		<ellipse transform="matrix(-0.5216 -0.8532 0.8532 -0.5216 80.0725 1029.8258)" fill="#1D1D1B" cx="328.8" cy="492.5" rx="26.8" ry="17.4"/>
	
		<ellipse transform="matrix(-8.609880e-02 -0.9963 0.9963 -8.609880e-02 -90.8834 773.1622)" fill="#1D1D1B" cx="309.2" cy="428.3" rx="26.8" ry="17.4"/>
	
		<ellipse transform="matrix(-0.5142 -0.8577 0.8577 -0.5142 -73.8632 1091.5886)" fill="#1D1D1B" cx="272.2" cy="566.7" rx="26.8" ry="17.4"/>
	
		<ellipse transform="matrix(-0.9496 -0.3133 0.3133 -0.9496 446.2206 1291.4156)" fill="#1D1D1B" cx="326.9" cy="609.9" rx="26.8" ry="17.4"/>
	
		<ellipse transform="matrix(-0.8545 0.5195 -0.5195 -0.8545 1051.781 906.9603)" fill="#1D1D1B" cx="398.8" cy="600.8" rx="26.8" ry="17.4"/>
	
		<ellipse transform="matrix(-0.5301 0.8479 -0.8479 -0.5301 1141.1023 457.1156)" fill="#1D1D1B" cx="443.9" cy="544.7" rx="26.8" ry="17.4"/>
</g>
</svg>
