<?xml version="1.0" encoding="utf-8"?>
<!-- Generator: Adobe Illustrator 18.0.0, SVG Export Plug-In . SVG Version: 6.00 Build 0)  -->
<!DOCTYPE svg PUBLIC "-//W3C//DTD SVG 1.1//EN" "http://www.w3.org/Graphics/SVG/1.1/DTD/svg11.dtd">
<svg version="1.1" id="Layer_1" xmlns="http://www.w3.org/2000/svg" xmlns:xlink="http://www.w3.org/1999/xlink" x="0px" y="0px"
	 viewBox="0 0 1190.6 841.9" enable-background="new 0 0 1190.6 841.9" xml:space="preserve">
<g>
	<path fill="#47A49B" d="M685.7,460c0,32.2-50.4,70.1-111,70.1S466.5,492.2,466.5,460s54-74.7,114.5-74.7S685.7,427.8,685.7,460z"/>
	<path fill="none" stroke="#47A49B" stroke-width="80" stroke-linecap="round" stroke-miterlimit="10" d="M310.8,575.7
		c0,0,61,13.7,115.9-99.7c48.4-100,159.9-66.2,159.9-66.2"/>
	
		<ellipse transform="matrix(-0.9695 0.245 -0.245 -0.9695 801.3705 1098.8918)" fill="#1D1D1B" cx="332.3" cy="599.3" rx="26.8" ry="17.4"/>
	
		<ellipse transform="matrix(-0.7673 0.6412 -0.6412 -0.7673 1064.5659 753.2549)" fill="#1D1D1B" cx="395.6" cy="569.8" rx="26.8" ry="17.4"/>
	
		<ellipse transform="matrix(-0.4147 0.91 -0.91 -0.4147 1101.9872 331.1635)" fill="#1D1D1B" cx="444.5" cy="520" rx="26.8" ry="17.4"/>
</g>
</svg>
