<?xml version="1.0" encoding="utf-8"?>
<!-- Generator: Adobe Illustrator 18.0.0, SVG Export Plug-In . SVG Version: 6.00 Build 0)  -->
<!DOCTYPE svg PUBLIC "-//W3C//DTD SVG 1.1//EN" "http://www.w3.org/Graphics/SVG/1.1/DTD/svg11.dtd">
<svg version="1.1" id="Layer_1" xmlns="http://www.w3.org/2000/svg" xmlns:xlink="http://www.w3.org/1999/xlink" x="0px" y="0px"
	 viewBox="0 0 1190.6 841.9" enable-background="new 0 0 1190.6 841.9" xml:space="preserve">
<g>
	<path fill="none" stroke="#47A49B" stroke-width="80" stroke-linecap="round" stroke-miterlimit="10" d="M251.8,491.2
		c0,0,55.9,155.5,141.3,104.9c85.4-50.6,68-177,181.8-176.5"/>
	
		<ellipse transform="matrix(-0.3489 -0.9372 0.9372 -0.3489 -168.9617 926.3633)" fill="#1D1D1B" cx="237.3" cy="521.9" rx="26.8" ry="17.4"/>
	
		<ellipse transform="matrix(-0.5142 -0.8577 0.8577 -0.5142 -84.553 1115.3456)" fill="#1D1D1B" cx="273.6" cy="581.6" rx="26.8" ry="17.4"/>
	
		<ellipse transform="matrix(-0.9496 -0.3133 0.3133 -0.9496 444.2484 1320.9095)" fill="#1D1D1B" cx="328.3" cy="624.8" rx="26.8" ry="17.4"/>
	
		<ellipse transform="matrix(-0.8545 0.5195 -0.5195 -0.8545 1062.0909 933.8845)" fill="#1D1D1B" cx="400.2" cy="615.7" rx="26.8" ry="17.4"/>
	
		<ellipse transform="matrix(-0.5301 0.8479 -0.8479 -0.5301 1155.8597 478.75)" fill="#1D1D1B" cx="445.3" cy="559.6" rx="26.8" ry="17.4"/>
	<path fill="#47A49B" d="M690.5,461.9c0,32.2-50.4,70.1-111,70.1s-108.2-37.9-108.2-70.1s54-74.7,114.5-74.7
		S690.5,429.6,690.5,461.9z"/>
	<path fill="none" stroke="#47A49B" stroke-width="80" stroke-linecap="round" stroke-miterlimit="10" d="M360.1,357.5
		c-42.9,112.9-40.4,186.9,146.6,93.6"/>
	<path fill="#1D1D1B" d="M182.1,308.3c0,0-48.7-59.6-27.1-128.6c0,0,52.6,103.4,114.3,124.3L182.1,308.3z"/>
	<path fill="#1D1D1B" d="M364.7,197.3c0,0-47.2-104.2-185.3-122.1c0,0,162.6,146.8,127.2,222.5L364.7,197.3z"/>
	<path fill="#47A49B" d="M364.7,197.3c0,0-74.4,118.3-182.5,111c0,0,89.9,151,196,168C378.1,476.3,484.7,375.6,364.7,197.3z"/>
</g>
</svg>
