<?xml version="1.0" encoding="utf-8"?>
<!-- Generator: Adobe Illustrator 18.0.0, SVG Export Plug-In . SVG Version: 6.00 Build 0)  -->
<!DOCTYPE svg PUBLIC "-//W3C//DTD SVG 1.1//EN" "http://www.w3.org/Graphics/SVG/1.1/DTD/svg11.dtd">
<svg version="1.1" id="Layer_1" xmlns="http://www.w3.org/2000/svg" xmlns:xlink="http://www.w3.org/1999/xlink" x="0px" y="0px"
	 viewBox="0 0 1190.6 841.9" enable-background="new 0 0 1190.6 841.9" xml:space="preserve">
<g>
	<path fill="#47A49B" d="M689.5,448.6c0,32.2-50.4,70.1-111,70.1s-108.2-37.9-108.2-70.1s54-74.7,114.5-74.7
		S689.5,416.4,689.5,448.6z"/>
	<g>
		<path fill="none" stroke="#47A49B" stroke-width="80" stroke-linecap="round" stroke-miterlimit="10" d="M906.5,478.5
			c0,0-56.2,155.4-141.5,104.6c-85.3-50.8-67.7-177.1-181.5-176.9"/>
		
			<ellipse transform="matrix(-0.3506 0.9365 -0.9365 -0.3506 1720.6829 -174.748)" fill="#1D1D1B" cx="920.9" cy="509.2" rx="26.8" ry="17.4"/>
		
			<ellipse transform="matrix(-0.5157 0.8568 -0.8568 -0.5157 1828.0266 104.3164)" fill="#1D1D1B" cx="884.5" cy="568.8" rx="26.8" ry="17.4"/>
		
			<ellipse transform="matrix(-0.9502 0.3117 -0.3117 -0.9502 1808.8837 934.6757)" fill="#1D1D1B" cx="829.7" cy="611.9" rx="26.8" ry="17.4"/>
		
			<ellipse transform="matrix(-0.8535 -0.521 0.521 -0.8535 1090.5481 1511.9872)" fill="#1D1D1B" cx="757.8" cy="602.7" rx="26.8" ry="17.4"/>
		
			<ellipse transform="matrix(-0.5287 -0.8488 0.8488 -0.5287 625.8776 1440.5588)" fill="#1D1D1B" cx="712.9" cy="546.5" rx="26.8" ry="17.4"/>
	</g>
	<path fill="none" stroke="#47A49B" stroke-width="80" stroke-linecap="round" stroke-miterlimit="10" d="M794.6,386.1
		c15.4,89.5-15.4,150.9-155.1,44.5"/>
	
		<ellipse transform="matrix(-0.5216 0.8532 -0.8532 -0.5216 1655.093 56.8517)" fill="#1D1D1B" cx="811.6" cy="492.4" rx="26.8" ry="17.4"/>
	
		<ellipse transform="matrix(-8.609880e-02 0.9963 -0.9963 -8.609880e-02 1329.467 -363.0317)" fill="#1D1D1B" cx="831.2" cy="428.2" rx="26.8" ry="17.4"/>
</g>
</svg>
