<?xml version="1.0" encoding="utf-8"?>
<!-- Generator: Adobe Illustrator 18.0.0, SVG Export Plug-In . SVG Version: 6.00 Build 0)  -->
<!DOCTYPE svg PUBLIC "-//W3C//DTD SVG 1.1//EN" "http://www.w3.org/Graphics/SVG/1.1/DTD/svg11.dtd">
<svg version="1.1" id="Layer_1" xmlns="http://www.w3.org/2000/svg" xmlns:xlink="http://www.w3.org/1999/xlink" x="0px" y="0px"
	 viewBox="0 0 1190.6 841.9" enable-background="new 0 0 1190.6 841.9" xml:space="preserve">
<g>
	<path fill="#47A49B" d="M685.7,460c0,32.2-50.4,70.1-111,70.1S466.5,492.2,466.5,460s54-74.7,114.5-74.7S685.7,427.8,685.7,460z"/>
	<path fill="none" stroke="#47A49B" stroke-width="80" stroke-linecap="round" stroke-miterlimit="10" d="M849.6,575.2
		c0,0-61,13.7-115.9-99.7c-48.4-100-159.9-66.2-159.9-66.2"/>
	
		<ellipse transform="matrix(-0.9695 -0.245 0.245 -0.9695 1484.1943 1382.0549)" fill="#1D1D1B" cx="828.1" cy="598.7" rx="26.8" ry="17.4"/>
	
		<ellipse transform="matrix(-0.7673 -0.6412 0.6412 -0.7673 986.5821 1496.3254)" fill="#1D1D1B" cx="764.7" cy="569.2" rx="26.8" ry="17.4"/>
	
		<ellipse transform="matrix(-0.4147 -0.91 0.91 -0.4147 540.1719 1386.4396)" fill="#1D1D1B" cx="716" cy="519.5" rx="26.8" ry="17.4"/>
</g>
</svg>
