<?xml version="1.0" encoding="utf-8"?>
<!-- Generator: Adobe Illustrator 18.0.0, SVG Export Plug-In . SVG Version: 6.00 Build 0)  -->
<!DOCTYPE svg PUBLIC "-//W3C//DTD SVG 1.1//EN" "http://www.w3.org/Graphics/SVG/1.1/DTD/svg11.dtd">
<svg version="1.1" id="Layer_1" xmlns="http://www.w3.org/2000/svg" xmlns:xlink="http://www.w3.org/1999/xlink" x="0px" y="0px"
	 viewBox="0 0 1190.6 841.9" enable-background="new 0 0 1190.6 841.9" xml:space="preserve">
<g>
	<g>
		<g>
			<path fill="#47A49B" d="M644.8,737.5l31.2-46L662.2,641l-28.3-151.9l-40.2-1c0,0-15.9,130.5,49.2,155.4
				c22.2,8.5-44.5,90.6-44.5,90.6l33.2,2.5C631.7,736.6,644.8,737.5,644.8,737.5z"/>
		</g>
		<path fill="#1D1D1B" d="M665.8,739.1c66.4,7.3,30.6,61.3,30.6,61.3s6.2-57.8-59.2-45.1L665.8,739.1z"/>
		<path fill="#1D1D1B" d="M678,657.4c0,0,54.1,19.2,26,58.1c0,0,2.2-17.8-28-23.9L662.2,641L678,657.4z"/>
		<path fill="#1D1D1B" d="M660.4,748.2c0,0,36.4,13.9,12.8,48.7c0,0-12.1-44.4-36.1-41.6c0,0,22.8,17.2,12.4,51.3
			c0,0-10.4-57.5-41.1-56.2c0,0-20.6,17.7-11,38.8c0,0-22.3-10.9,1-55.1l67.3,5"/>
		<path fill="#1D1D1B" d="M704,655.3c0,0-18.4-3-24.1,3.7L662.2,641C662.2,641,679.6,638.5,704,655.3z"/>
	</g>
</g>
</svg>
