<?xml version="1.0" encoding="utf-8"?>
<!-- Generator: Adobe Illustrator 18.0.0, SVG Export Plug-In . SVG Version: 6.00 Build 0)  -->
<!DOCTYPE svg PUBLIC "-//W3C//DTD SVG 1.1//EN" "http://www.w3.org/Graphics/SVG/1.1/DTD/svg11.dtd">
<svg version="1.1" id="Layer_1" xmlns="http://www.w3.org/2000/svg" xmlns:xlink="http://www.w3.org/1999/xlink" x="0px" y="0px"
	 viewBox="0 0 1190.6 841.9" enable-background="new 0 0 1190.6 841.9" xml:space="preserve">
<g>
	<path fill="#47A49B" d="M690.5,461.9c0,32.2-50.4,70.1-111,70.1s-108.2-37.9-108.2-70.1s54-74.7,114.5-74.7
		S690.5,429.6,690.5,461.9z"/>
	<g>
		<path fill="none" stroke="#47A49B" stroke-width="80" stroke-linecap="round" stroke-miterlimit="10" d="M907.4,491.7
			c0,0-56.2,155.4-141.5,104.6c-85.3-50.8-67.7-177.1-181.5-176.9"/>
		
			<ellipse transform="matrix(-0.3506 0.9365 -0.9365 -0.3506 1734.4565 -157.7486)" fill="#1D1D1B" cx="921.9" cy="522.5" rx="26.8" ry="17.4"/>
		
			<ellipse transform="matrix(-0.5157 0.8568 -0.8568 -0.5157 1840.9069 123.5868)" fill="#1D1D1B" cx="885.5" cy="582.1" rx="26.8" ry="17.4"/>
		
			<ellipse transform="matrix(-0.9502 0.3117 -0.3117 -0.9502 1814.9597 960.2549)" fill="#1D1D1B" cx="830.7" cy="625.2" rx="26.8" ry="17.4"/>
		
			<ellipse transform="matrix(-0.8535 -0.521 0.521 -0.8535 1085.4712 1537.1106)" fill="#1D1D1B" cx="758.8" cy="616" rx="26.8" ry="17.4"/>
		
			<ellipse transform="matrix(-0.5287 -0.8488 0.8488 -0.5287 616.1279 1461.6942)" fill="#1D1D1B" cx="713.9" cy="559.8" rx="26.8" ry="17.4"/>
	</g>
	<path fill="none" stroke="#47A49B" stroke-width="80" stroke-linecap="round" stroke-miterlimit="10" d="M802.1,379.4
		c21,118.9,4.7,191.1-161.5,64.5"/>
	<path fill="#1D1D1B" d="M986.1,364.3c0,0,59-49.4,50.7-121.2c0,0-71,91.7-135.6,100.7L986.1,364.3z"/>
	<path fill="#1D1D1B" d="M827.6,221.1c0,0,65.9-93.5,204.9-85.2c0,0-187.3,113.8-166.6,194.7L827.6,221.1z"/>
	<path fill="#47A49B" d="M827.6,221.1c0,0,50.9,130.2,158.5,143.2c0,0-116.7,131.5-224,128.3C762.1,492.6,676.3,373.8,827.6,221.1z"
		/>
</g>
</svg>
